<svg width="382" height="116" viewBox="0 0 382 116" fill="none" xmlns="http://www.w3.org/2000/svg">
<path fill-rule="evenodd" clip-rule="evenodd" d="M209.515 69.89C209.515 69.89 219.919 70.6149 219.919 59.0199C219.919 47.4249 204.457 39.1638 201.423 39.1638H187.644H172.958C169.923 39.1638 154.461 47.4249 154.461 59.0199C154.461 70.6149 164.865 69.89 164.865 69.89H209.515Z" fill="#FF4E42"/>
<path fill-rule="evenodd" clip-rule="evenodd" d="M208.303 36.1433C208.407 35.2893 208.467 34.4204 208.467 33.5388C208.467 21.6863 198.774 12.0769 186.818 12.0769C174.861 12.0769 165.169 21.6863 165.169 33.5388C165.169 34.4822 165.236 35.4108 165.356 36.3214C164.176 36.9787 162.3 38.4363 162.876 40.8754C163.7 44.3614 168.013 44.4069 168.013 44.4069C168.013 44.4069 168.032 44.348 168.061 44.2489C171.8 50.6733 178.797 55 186.818 55C195.015 55 202.147 50.4825 205.823 43.8219C205.917 44.1871 205.985 44.4069 205.985 44.4069C205.985 44.4069 210.299 44.3614 211.123 40.8754C211.759 38.1814 209.408 36.6866 208.303 36.1433Z" fill="#FFC024"/>
<path fill-rule="evenodd" clip-rule="evenodd" d="M165.234 56.6499C159.844 55.2514 157.032 56.844 156.914 56.9125C156.556 57.1227 156.433 57.5879 156.635 57.956C156.837 58.3256 157.295 58.4558 157.657 58.2524C157.682 58.2378 160.121 56.9094 164.864 58.1431C169.83 59.4322 179.49 66.2559 179.587 66.3244C179.718 66.4176 179.867 66.4615 180.015 66.4615C180.254 66.4615 180.489 66.346 180.635 66.1304C180.872 65.7808 180.786 65.301 180.444 65.0584C180.04 64.772 170.463 58.0083 165.234 56.6499Z" fill="#1820EF"/>
<path fill-rule="evenodd" clip-rule="evenodd" d="M217.082 56.9131C216.965 56.8446 214.153 55.2506 208.763 56.6506C203.534 58.0089 193.959 64.7721 193.555 65.0585C193.213 65.3019 193.128 65.7816 193.364 66.1304C193.51 66.346 193.745 66.4615 193.984 66.4615C194.132 66.4615 194.282 66.4176 194.412 66.3252C194.509 66.2559 204.167 59.4334 209.134 58.1436C213.879 56.9116 216.315 58.2391 216.334 58.2499C216.697 58.4617 217.156 58.3331 217.361 57.9642C217.569 57.5954 217.443 57.1241 217.082 56.9131Z" fill="#1820EF"/>
<path fill-rule="evenodd" clip-rule="evenodd" d="M193.072 26.9213C193.51 28.5006 193.948 30.08 194.385 31.6593C194.557 32.284 193.967 32.801 193.345 32.667C188.677 31.6585 184.496 29.2273 181.335 25.7986C181.166 27.822 181.492 29.8404 182.281 31.7568C182.573 32.4668 181.625 32.983 181.039 32.6816C176.623 30.4098 172.915 27.0262 170.285 22.9057C169.711 22.0057 171.173 21.1837 171.744 22.0785C173.842 25.3639 176.666 28.114 180.001 30.1841C179.479 28.0441 179.473 25.8189 179.964 23.644C180.134 22.8875 181.111 22.9341 181.509 23.4482C184.214 26.9548 188.067 29.4785 192.374 30.7163C191.838 28.7861 191.303 26.8543 190.77 24.9241C190.542 24.1027 191.566 23.5981 192.181 24.1268C195.589 27.0633 199.639 29.1618 203.998 30.3486C202.678 29.0315 201.568 27.5271 200.712 25.8568C200.341 25.1323 201.1 24.3285 201.868 24.7355C204.872 26.3337 208.163 27.3298 211.576 27.6458C212.65 27.7448 212.657 29.3839 211.576 29.2841C208.821 29.0293 206.152 28.3863 203.622 27.364C204.698 28.8247 206.007 30.1127 207.537 31.1656C208.341 31.7197 207.833 32.8134 206.885 32.6634C201.86 31.8653 197.129 29.8681 193.072 26.9213ZM199.358 41.01C199.324 40.8943 198.475 38.1386 195.998 38.1386C193.504 38.1386 192.667 40.485 192.632 40.5848C192.501 40.963 192.073 41.1705 191.678 41.0476C191.281 40.9254 191.063 40.5204 191.19 40.1415C191.59 38.9484 193.109 36.6924 195.998 36.6924C199.63 36.6924 200.771 40.4611 200.818 40.6217C200.93 41.0063 200.694 41.4055 200.292 41.5125C200.223 41.5299 200.155 41.5385 200.087 41.5385C199.756 41.5385 199.452 41.3296 199.358 41.01ZM177.998 36.6924C175.109 36.6924 173.59 38.9484 173.19 40.1415C173.063 40.5204 173.281 40.9254 173.678 41.0476C174.073 41.1705 174.501 40.963 174.632 40.5848C174.667 40.485 175.504 38.1386 177.998 38.1386C180.475 38.1386 181.324 40.8943 181.358 41.01C181.452 41.3296 181.756 41.5385 182.087 41.5385C182.155 41.5385 182.223 41.5299 182.292 41.5125C182.694 41.4055 182.93 41.0063 182.818 40.6217C182.771 40.4611 181.63 36.6924 177.998 36.6924ZM187.082 48.0232C187.55 48.2898 188.475 48.6509 189.209 47.9008C189.496 47.6073 189.959 47.6073 190.246 47.9008C190.533 48.1944 190.533 48.6689 190.246 48.9625C189.609 49.615 188.888 49.8462 188.203 49.8462C187.261 49.8462 186.39 49.4085 185.903 49.0286L185.615 48.8033V40.2124C185.615 39.7972 185.943 39.4616 186.349 39.4616C186.754 39.4616 187.082 39.7972 187.082 40.2124V48.0232Z" fill="#1820EF"/>
<path fill-rule="evenodd" clip-rule="evenodd" d="M170.744 6.00779C172.078 7.32822 173.663 8.67156 175.152 10.0378C176.089 10.8979 177.599 10.0312 177.258 8.82526L175.604 2.98269C175.372 2.16324 174.37 1.81226 173.651 2.2992L170.931 4.13983C170.287 4.57504 170.195 5.46543 170.744 6.00779Z" fill="#FF4E42"/>
<path fill-rule="evenodd" clip-rule="evenodd" d="M201.87 6.00779C200.537 7.32822 198.952 8.67156 197.463 10.0378C196.525 10.8979 195.015 10.0312 195.357 8.82526L197.011 2.98269C197.243 2.16324 198.244 1.81226 198.964 2.2992L201.684 4.13983C202.327 4.57504 202.42 5.46543 201.87 6.00779Z" fill="#FF4E42"/>
<path fill-rule="evenodd" clip-rule="evenodd" d="M184.259 1.66702C184.646 3.4793 185.223 5.44236 185.711 7.37496C186.019 8.59008 187.677 8.62945 188.026 7.42547L189.718 1.59052C189.956 0.771282 189.334 -0.0435011 188.505 0.00180593L185.374 0.168922C184.633 0.20903 184.099 0.920573 184.259 1.66702Z" fill="#FF4E42"/>
<path fill-rule="evenodd" clip-rule="evenodd" d="M196.51 64.4647C200.066 65.0702 200.842 68.7677 200.842 68.7677C201 69.3039 196.284 70.3456 196.284 70.3456C193.983 71.0021 190.898 71.4689 189.007 71.2552C187.117 71.0422 187.486 68.8772 188.722 67.8625C188.848 67.7587 188.993 67.6344 189.155 67.4953C190.577 66.2742 193.316 63.9212 196.51 64.4647ZM177.49 64.4647C173.933 65.0702 173.157 68.7677 173.157 68.7677C172.999 69.3039 177.715 70.3456 177.715 70.3456C180.017 71.0021 183.101 71.4689 184.993 71.2552C186.883 71.0422 186.513 68.8772 185.278 67.8625C185.151 67.7587 185.007 67.6344 184.845 67.4953C183.423 66.2742 180.683 63.9212 177.49 64.4647Z" fill="#FFC024"/>
<path d="M73.84 94.22C74.12 94.0733 74.4133 94.0467 74.72 94.14C75.0267 94.2333 75.2533 94.42 75.4 94.7C75.5467 94.9667 75.7667 95.38 76.06 95.94C76.1933 96.22 76.2067 96.5067 76.1 96.8C75.9933 97.0933 75.8 97.3067 75.52 97.44C75.2267 97.5733 74.9333 97.5867 74.64 97.48C74.3467 97.3733 74.1267 97.18 73.98 96.9C73.9133 96.78 73.7 96.3867 73.34 95.72C73.1933 95.4533 73.1667 95.1733 73.26 94.88C73.3533 94.5867 73.54 94.3667 73.82 94.22H73.84ZM78.6 93.98C79.04 94.82 79.2667 95.2533 79.28 95.28C79.4267 95.56 79.4467 95.8467 79.34 96.14C79.2467 96.4333 79.06 96.6467 78.78 96.78L78.72 96.82C78.44 96.9533 78.1467 96.9733 77.84 96.88C77.5467 96.7733 77.3267 96.58 77.18 96.3C77.1133 96.1667 77.0067 95.96 76.86 95.68C76.7133 95.4 76.6 95.1933 76.52 95.06C76.3733 94.7933 76.34 94.5067 76.42 94.2C76.5133 93.8933 76.7 93.6733 76.98 93.54L77.04 93.52C77.32 93.3733 77.6133 93.3467 77.92 93.44C78.2267 93.52 78.4533 93.7 78.6 93.98ZM77.54 108.52L77.66 109.68C77.7 110 77.6267 110.28 77.44 110.52C77.2533 110.773 77 110.927 76.68 110.98C74.8133 111.26 72.7867 111.4 70.6 111.4C68.04 111.4 66.1667 110.98 64.98 110.14C63.7933 109.3 63.2 108.053 63.2 106.4C63.2 104.707 64.18 103.26 66.14 102.06C66.2333 101.993 66.26 101.913 66.22 101.82C66.1933 101.78 66.1667 101.707 66.14 101.6C65.7533 99.9733 65.3733 98.14 65 96.1C64.9467 95.7933 65.0067 95.52 65.18 95.28C65.3667 95.0267 65.6133 94.8733 65.92 94.82L67.58 94.58C67.8867 94.5267 68.1667 94.5933 68.42 94.78C68.6733 94.9667 68.8333 95.2133 68.9 95.52C69.2067 97.1733 69.54 98.7333 69.9 100.2C69.9133 100.28 69.9733 100.307 70.08 100.28C71.64 99.72 73.58 99.1733 75.9 98.64C76.1933 98.5733 76.4667 98.6267 76.72 98.8C76.9867 98.9733 77.1533 99.2133 77.22 99.52L77.48 100.68C77.5467 100.987 77.4933 101.273 77.32 101.54C77.1467 101.807 76.9067 101.973 76.6 102.04C74.1333 102.613 72.18 103.16 70.74 103.68C69.3133 104.2 68.3667 104.667 67.9 105.08C67.4333 105.493 67.2 105.933 67.2 106.4C67.2 106.947 67.46 107.353 67.98 107.62C68.5 107.873 69.3733 108 70.6 108C72.44 108 74.3333 107.86 76.28 107.58C76.5867 107.527 76.86 107.593 77.1 107.78C77.3533 107.967 77.5 108.213 77.54 108.52ZM99.62 104.92C99.74 105.613 99.8 106.173 99.8 106.6C99.8 108.28 99.2733 109.5 98.22 110.26C97.18 111.02 95.44 111.4 93 111.4C90.6133 111.4 88.9467 110.987 88 110.16C87.0667 109.347 86.6 107.893 86.6 105.8C86.6 105.067 86.6067 104.487 86.62 104.06C86.62 103.953 86.5667 103.9 86.46 103.9H83.74C83.4333 103.9 83.1667 103.787 82.94 103.56C82.7133 103.333 82.6 103.067 82.6 102.76V101.84C82.6 101.533 82.7133 101.267 82.94 101.04C83.1667 100.813 83.4333 100.7 83.74 100.7H86.6C86.7067 100.7 86.76 100.647 86.76 100.54C86.76 100.42 86.7667 100.227 86.78 99.96C86.8067 99.6933 86.8267 99.4933 86.84 99.36C86.84 99.2533 86.7867 99.2 86.68 99.2H84.34C84.0333 99.2 83.7667 99.0867 83.54 98.86C83.3133 98.6333 83.2 98.3667 83.2 98.06V97.14C83.2 96.8333 83.3133 96.5667 83.54 96.34C83.7667 96.1133 84.0333 96 84.34 96H86.88C87 96 87.06 95.9467 87.06 95.84L87.12 95.12C87.1333 94.8 87.26 94.5333 87.5 94.32C87.74 94.1067 88.02 94.0067 88.34 94.02L89.86 94.08C90.1667 94.0933 90.42 94.2133 90.62 94.44C90.8333 94.6667 90.9333 94.9333 90.92 95.24L90.86 95.84C90.86 95.9467 90.9133 96 91.02 96H96.06C96.3667 96 96.6333 96.1133 96.86 96.34C97.0867 96.5667 97.2 96.8333 97.2 97.14V98.06C97.2 98.3667 97.0867 98.6333 96.86 98.86C96.6333 99.0867 96.3667 99.2 96.06 99.2H90.82C90.7 99.2 90.64 99.2533 90.64 99.36C90.6267 99.6267 90.6067 100.013 90.58 100.52C90.58 100.64 90.6333 100.7 90.74 100.7H94.46C94.7667 100.7 95.0333 100.813 95.26 101.04C95.4867 101.267 95.6 101.533 95.6 101.84V102.76C95.6 103.067 95.4867 103.333 95.26 103.56C95.0333 103.787 94.7667 103.9 94.46 103.9H90.6C90.48 103.9 90.42 103.953 90.42 104.06C90.4067 104.487 90.4 105.067 90.4 105.8C90.4 106.76 90.5467 107.367 90.84 107.62C91.1467 107.873 91.8667 108 93 108C93.96 108 94.66 107.953 95.1 107.86C95.54 107.753 95.8333 107.593 95.98 107.38C96.1267 107.153 96.2 106.793 96.2 106.3C96.2 106.18 96.18 105.987 96.14 105.72C96.0867 105.4 96.14 105.107 96.3 104.84C96.46 104.573 96.6933 104.407 97 104.34L98.3 104.06C98.6067 103.993 98.8867 104.047 99.14 104.22C99.4067 104.38 99.5667 104.613 99.62 104.92ZM112.22 103.16C112.233 103.12 112.227 103.087 112.2 103.06C112.173 103.02 112.14 103 112.1 103C111.78 103 111.34 103.027 110.78 103.08C110.66 103.107 110.6 103.167 110.6 103.26V105.46C110.6 105.487 110.613 105.507 110.64 105.52C110.667 105.533 110.687 105.527 110.7 105.5C111.3 104.793 111.807 104.013 112.22 103.16ZM106 106.2C106 107.053 106.347 107.52 107.04 107.6C107.093 107.613 107.133 107.6 107.16 107.56C107.187 107.52 107.2 107.473 107.2 107.42V104.42C107.2 104.313 107.153 104.293 107.06 104.36C106.353 104.92 106 105.533 106 106.2ZM112.2 99.8C114.587 99.8 116.413 100.32 117.68 101.36C118.96 102.4 119.6 103.813 119.6 105.6C119.6 106.987 119.18 108.207 118.34 109.26C117.5 110.3 116.347 111.053 114.88 111.52C114.587 111.613 114.3 111.58 114.02 111.42C113.74 111.26 113.553 111.027 113.46 110.72L113.14 109.68C113.047 109.387 113.067 109.107 113.2 108.84C113.347 108.56 113.567 108.353 113.86 108.22C114.513 107.913 115.033 107.527 115.42 107.06C115.807 106.58 116 106.093 116 105.6C116 105.013 115.873 104.533 115.62 104.16C115.607 104.133 115.573 104.12 115.52 104.12C115.48 104.12 115.453 104.14 115.44 104.18C114.48 106.313 113.233 107.953 111.7 109.1C110.167 110.233 108.533 110.8 106.8 110.8C105.48 110.8 104.413 110.42 103.6 109.66C102.8 108.9 102.4 107.88 102.4 106.6C102.4 105.253 102.8 104.06 103.6 103.02C104.413 101.98 105.567 101.18 107.06 100.62C107.153 100.58 107.2 100.507 107.2 100.4V98.98C107.2 98.86 107.147 98.8 107.04 98.8H104.54C104.233 98.8 103.967 98.6867 103.74 98.46C103.513 98.2333 103.4 97.9667 103.4 97.66V96.94C103.4 96.6333 103.513 96.3667 103.74 96.14C103.967 95.9133 104.233 95.8 104.54 95.8H107.04C107.147 95.8 107.2 95.74 107.2 95.62V94.94C107.2 94.6333 107.313 94.3667 107.54 94.14C107.767 93.9133 108.033 93.8 108.34 93.8H109.46C109.767 93.8 110.033 93.9133 110.26 94.14C110.487 94.3667 110.6 94.6333 110.6 94.94V95.62C110.6 95.74 110.66 95.8 110.78 95.8H117.46C117.767 95.8 118.033 95.9133 118.26 96.14C118.487 96.3667 118.6 96.6333 118.6 96.94V97.66C118.6 97.9667 118.487 98.2333 118.26 98.46C118.033 98.6867 117.767 98.8 117.46 98.8H110.78C110.66 98.8 110.6 98.86 110.6 98.98V99.7C110.6 99.8067 110.653 99.86 110.76 99.86C111.213 99.82 111.693 99.8 112.2 99.8ZM132.8 95C134.573 95 135.98 95.6 137.02 96.8C138.073 97.9867 138.6 99.6533 138.6 101.8C138.6 104.987 137.72 107.347 135.96 108.88C134.2 110.413 131.387 111.247 127.52 111.38C127.2 111.393 126.927 111.287 126.7 111.06C126.487 110.847 126.367 110.58 126.34 110.26L126.26 109.14C126.247 108.833 126.34 108.567 126.54 108.34C126.753 108.113 127.013 107.993 127.32 107.98C130.08 107.887 131.98 107.387 133.02 106.48C134.073 105.56 134.6 104 134.6 101.8C134.6 99.6667 133.867 98.6 132.4 98.6C131.293 98.6 130.3 99.0733 129.42 100.02C128.54 100.967 127.993 102.18 127.78 103.66C127.74 103.98 127.607 104.253 127.38 104.48C127.153 104.693 126.88 104.8 126.56 104.8H125.24C124.933 104.8 124.667 104.687 124.44 104.46C124.213 104.233 124.1 103.967 124.1 103.66V95.74C124.1 95.4333 124.213 95.1667 124.44 94.94C124.667 94.7133 124.933 94.6 125.24 94.6H126.66C126.967 94.6 127.233 94.7133 127.46 94.94C127.687 95.1667 127.8 95.4333 127.8 95.74V97.4L127.84 97.38C129.267 95.7933 130.92 95 132.8 95ZM156.48 98.44C156.187 98.5733 155.893 98.5867 155.6 98.48C155.307 98.3733 155.087 98.18 154.94 97.9C154.873 97.78 154.66 97.3867 154.3 96.72C154.153 96.4533 154.127 96.1733 154.22 95.88C154.313 95.5867 154.5 95.3667 154.78 95.22H154.8C155.08 95.0733 155.373 95.0467 155.68 95.14C155.987 95.2333 156.213 95.42 156.36 95.7C156.507 95.9667 156.727 96.38 157.02 96.94C157.153 97.22 157.167 97.5067 157.06 97.8C156.953 98.0933 156.76 98.3067 156.48 98.44ZM158 94.52C158.28 94.3733 158.573 94.3467 158.88 94.44C159.187 94.52 159.413 94.7 159.56 94.98C160 95.82 160.227 96.2533 160.24 96.28C160.387 96.56 160.407 96.8467 160.3 97.14C160.207 97.4333 160.02 97.6467 159.74 97.78L159.68 97.82C159.4 97.9533 159.107 97.9733 158.8 97.88C158.507 97.7733 158.287 97.58 158.14 97.3C158.073 97.1667 157.967 96.96 157.82 96.68C157.673 96.4 157.56 96.1933 157.48 96.06C157.333 95.7933 157.3 95.5067 157.38 95.2C157.473 94.8933 157.66 94.6733 157.94 94.54L158 94.52ZM149.96 97.2C150.707 97.2 151.253 97.2 151.6 97.2C151.947 97.2 152.347 97.2467 152.8 97.34C153.267 97.42 153.573 97.4867 153.72 97.54C153.88 97.5933 154.073 97.7667 154.3 98.06C154.527 98.3533 154.66 98.6067 154.7 98.82C154.74 99.0333 154.793 99.44 154.86 100.04C154.927 100.627 154.96 101.153 154.96 101.62C154.96 102.087 154.96 102.813 154.96 103.8C154.96 106.453 154.633 108.353 153.98 109.5C153.34 110.633 152.4 111.2 151.16 111.2C150.267 111.2 149.167 111.04 147.86 110.72C147.553 110.64 147.32 110.46 147.16 110.18C147 109.9 146.96 109.607 147.04 109.3L147.28 108.3C147.36 108.007 147.533 107.78 147.8 107.62C148.067 107.46 148.353 107.413 148.66 107.48C149.513 107.693 150.08 107.8 150.36 107.8C150.893 107.8 151.16 106.267 151.16 103.2C151.16 101.813 151.107 101 151 100.76C150.907 100.52 150.56 100.4 149.96 100.4H148.38C148.26 100.4 148.187 100.453 148.16 100.56C147.44 103.787 146.5 107.04 145.34 110.32C145.233 110.627 145.033 110.847 144.74 110.98C144.46 111.127 144.173 111.153 143.88 111.06L142.94 110.74C142.647 110.647 142.427 110.46 142.28 110.18C142.147 109.913 142.133 109.627 142.24 109.32C143.2 106.467 144.02 103.553 144.7 100.58C144.727 100.46 144.687 100.4 144.58 100.4H143.5C143.193 100.4 142.927 100.287 142.7 100.06C142.473 99.8333 142.36 99.5667 142.36 99.26V98.34C142.36 98.0333 142.473 97.7667 142.7 97.54C142.927 97.3133 143.193 97.2 143.5 97.2H145.24C145.347 97.2 145.413 97.1467 145.44 97.04C145.533 96.5733 145.68 95.7333 145.88 94.52C145.933 94.2 146.087 93.94 146.34 93.74C146.593 93.5267 146.88 93.4333 147.2 93.46L148.22 93.54C148.527 93.5667 148.78 93.7 148.98 93.94C149.18 94.1667 149.26 94.4267 149.22 94.72C149.113 95.52 148.993 96.2933 148.86 97.04C148.833 97.1467 148.88 97.2 149 97.2H149.96ZM159.3 100.3C159.767 101.873 160.233 103.607 160.7 105.5C160.767 105.793 160.72 106.073 160.56 106.34C160.4 106.607 160.167 106.773 159.86 106.84L158.56 107.12C158.253 107.187 157.967 107.14 157.7 106.98C157.447 106.807 157.28 106.56 157.2 106.24C156.747 104.4 156.3 102.74 155.86 101.26C155.767 100.967 155.793 100.687 155.94 100.42C156.1 100.14 156.333 99.9533 156.64 99.86L157.88 99.52C158.173 99.4267 158.46 99.46 158.74 99.62C159.02 99.7667 159.207 99.9933 159.3 100.3ZM178.06 109.48C178.1 109.8 178.027 110.08 177.84 110.32C177.653 110.573 177.4 110.727 177.08 110.78C175.213 111.06 173.187 111.2 171 111.2C166.067 111.2 163.6 109.467 163.6 106C163.6 104.267 164.52 102.727 166.36 101.38C166.453 101.313 166.487 101.227 166.46 101.12C166.06 99.3867 165.707 97.6467 165.4 95.9C165.347 95.5933 165.407 95.32 165.58 95.08C165.767 94.8267 166.013 94.6733 166.32 94.62L167.98 94.38C168.287 94.3267 168.567 94.3933 168.82 94.58C169.073 94.7667 169.233 95.0133 169.3 95.32C169.607 96.8933 169.873 98.1867 170.1 99.2C170.127 99.32 170.193 99.3533 170.3 99.3C171.98 98.62 173.98 98.0067 176.3 97.46C176.593 97.3933 176.867 97.4467 177.12 97.62C177.387 97.78 177.553 98.0133 177.62 98.32L177.88 99.48C177.947 99.7867 177.893 100.08 177.72 100.36C177.547 100.627 177.313 100.793 177.02 100.86C173.913 101.607 171.567 102.427 169.98 103.32C168.393 104.213 167.6 105.04 167.6 105.8C167.6 106.48 167.867 106.987 168.4 107.32C168.933 107.64 169.8 107.8 171 107.8C172.84 107.8 174.733 107.66 176.68 107.38C176.987 107.327 177.26 107.393 177.5 107.58C177.753 107.767 177.9 108.013 177.94 108.32L178.06 109.48ZM192.5 99.4C194.58 99.4 196.167 99.8067 197.26 100.62C198.353 101.433 198.9 102.56 198.9 104C198.9 108.04 195.413 110.407 188.44 111.1C188.12 111.127 187.833 111.04 187.58 110.84C187.34 110.653 187.193 110.4 187.14 110.08L186.96 109.02C186.907 108.713 186.973 108.44 187.16 108.2C187.36 107.947 187.613 107.8 187.92 107.76C190.493 107.427 192.333 106.967 193.44 106.38C194.547 105.78 195.1 105.053 195.1 104.2C195.1 103.733 194.887 103.387 194.46 103.16C194.033 102.92 193.313 102.8 192.3 102.8C190.727 102.8 188.293 103.153 185 103.86C184.693 103.927 184.407 103.88 184.14 103.72C183.873 103.547 183.707 103.307 183.64 103L183.36 101.9C183.293 101.593 183.34 101.307 183.5 101.04C183.66 100.76 183.893 100.587 184.2 100.52C187.347 99.7733 190.113 99.4 192.5 99.4ZM187.44 94.32C190.053 94.5867 192.567 94.74 194.98 94.78C195.287 94.7933 195.547 94.9133 195.76 95.14C195.987 95.3667 196.1 95.6333 196.1 95.94V97.06C196.1 97.38 195.98 97.6533 195.74 97.88C195.513 98.0933 195.247 98.1933 194.94 98.18C192.34 98.1133 189.707 97.9333 187.04 97.64C186.733 97.6133 186.48 97.4733 186.28 97.22C186.08 96.9667 186 96.6867 186.04 96.38L186.16 95.32C186.2 95.0133 186.347 94.7667 186.6 94.58C186.853 94.38 187.133 94.2933 187.44 94.32ZM214.04 99.82C214.32 99.6733 214.613 99.6467 214.92 99.74C215.227 99.8333 215.453 100.02 215.6 100.3C215.747 100.567 215.967 100.98 216.26 101.54C216.393 101.82 216.407 102.107 216.3 102.4C216.193 102.693 216 102.907 215.72 103.04C215.427 103.173 215.133 103.187 214.84 103.08C214.547 102.973 214.327 102.78 214.18 102.5C214.113 102.38 213.9 101.987 213.54 101.32C213.393 101.053 213.367 100.773 213.46 100.48C213.553 100.187 213.74 99.9667 214.02 99.82H214.04ZM218.8 99.58C219.24 100.42 219.467 100.853 219.48 100.88C219.627 101.16 219.647 101.447 219.54 101.74C219.447 102.033 219.26 102.247 218.98 102.38L218.92 102.42C218.64 102.553 218.347 102.573 218.04 102.48C217.747 102.373 217.527 102.18 217.38 101.9C217.313 101.767 217.207 101.56 217.06 101.28C216.913 101 216.8 100.793 216.72 100.66C216.573 100.393 216.54 100.107 216.62 99.8C216.713 99.4933 216.9 99.2733 217.18 99.14L217.24 99.12C217.52 98.9733 217.813 98.9467 218.12 99.04C218.427 99.12 218.653 99.3 218.8 99.58ZM217 96.96C217 97.2667 216.887 97.5333 216.66 97.76C216.433 97.9867 216.167 98.1 215.86 98.1H205.94C205.633 98.1 205.367 97.9867 205.14 97.76C204.913 97.5333 204.8 97.2667 204.8 96.96V95.94C204.8 95.6333 204.913 95.3667 205.14 95.14C205.367 94.9133 205.633 94.8 205.94 94.8H215.86C216.167 94.8 216.433 94.9133 216.66 95.14C216.887 95.3667 217 95.6333 217 95.94V96.96ZM217.72 107.92L217.98 109.08C218.047 109.387 217.993 109.68 217.82 109.96C217.647 110.227 217.407 110.393 217.1 110.46C214.78 110.953 212.68 111.2 210.8 111.2C208.347 111.2 206.433 110.78 205.06 109.94C203.687 109.1 203 107.987 203 106.6C203 105.893 203.187 105.187 203.56 104.48C203.933 103.76 204.58 102.927 205.5 101.98C205.727 101.753 206 101.633 206.32 101.62C206.653 101.593 206.953 101.673 207.22 101.86L208.18 102.54C208.42 102.713 208.547 102.947 208.56 103.24C208.587 103.533 208.5 103.787 208.3 104C207.367 104.987 206.9 105.72 206.9 106.2C206.9 106.68 207.22 107.067 207.86 107.36C208.513 107.653 209.493 107.8 210.8 107.8C212.387 107.8 214.253 107.56 216.4 107.08C216.707 107.013 216.987 107.067 217.24 107.24C217.507 107.4 217.667 107.627 217.72 107.92ZM239.76 93.94C239.827 94.0733 239.92 94.2667 240.04 94.52C240.173 94.7733 240.267 94.9533 240.32 95.06C240.453 95.3267 240.473 95.5933 240.38 95.86C240.287 96.1267 240.107 96.3267 239.84 96.46C239.573 96.5933 239.3 96.6133 239.02 96.52C238.753 96.4267 238.547 96.2467 238.4 95.98C238.28 95.74 238.087 95.38 237.82 94.9C237.687 94.6333 237.66 94.3667 237.74 94.1C237.833 93.82 238.013 93.6133 238.28 93.48C238.547 93.3467 238.827 93.3267 239.12 93.42C239.413 93.5133 239.627 93.6867 239.76 93.94ZM237.76 96.22C238.067 96.2067 238.333 96.3067 238.56 96.52C238.8 96.7333 238.927 96.9933 238.94 97.3L238.96 98.22C238.973 98.5267 238.873 98.8 238.66 99.04C238.447 99.28 238.187 99.4067 237.88 99.42C237.853 99.42 236.68 99.46 234.36 99.54C234.253 99.54 234.213 99.6 234.24 99.72C234.547 100.747 235.04 101.853 235.72 103.04C235.867 103.307 235.893 103.58 235.8 103.86C235.707 104.127 235.527 104.32 235.26 104.44L233.84 105.06C233.213 105.327 232.533 105.307 231.8 105C230.867 104.6 229.9 104.4 228.9 104.4C228.353 104.4 227.913 104.547 227.58 104.84C227.26 105.133 227.1 105.52 227.1 106C227.1 106.693 227.433 107.233 228.1 107.62C228.767 108.007 229.767 108.2 231.1 108.2C232.02 108.2 233.313 108.067 234.98 107.8C235.287 107.747 235.567 107.813 235.82 108C236.087 108.173 236.247 108.413 236.3 108.72L236.5 109.68C236.567 109.987 236.507 110.267 236.32 110.52C236.147 110.787 235.907 110.947 235.6 111C234 111.267 232.5 111.4 231.1 111.4C228.607 111.4 226.68 110.907 225.32 109.92C223.973 108.92 223.3 107.547 223.3 105.8C223.3 104.413 223.787 103.3 224.76 102.46C225.733 101.62 227.047 101.2 228.7 101.2C229.447 101.2 230.233 101.3 231.06 101.5H231.1V101.44C230.873 100.88 230.7 100.347 230.58 99.84C230.553 99.72 230.487 99.66 230.38 99.66C227.873 99.7267 225.627 99.76 223.64 99.76C223.32 99.76 223.047 99.6467 222.82 99.42C222.607 99.1933 222.5 98.9267 222.5 98.62V97.7C222.5 97.3933 222.607 97.1267 222.82 96.9C223.047 96.6733 223.313 96.56 223.62 96.56C225.007 96.56 227.1 96.5333 229.9 96.48C229.98 96.48 230.02 96.42 230.02 96.3C230.007 95.9933 229.987 95.6733 229.96 95.34C229.947 95.02 230.04 94.7467 230.24 94.52C230.453 94.2933 230.72 94.1667 231.04 94.14L232.36 94.06C232.667 94.0467 232.933 94.1467 233.16 94.36C233.4 94.5733 233.533 94.8333 233.56 95.14C233.573 95.38 233.593 95.7267 233.62 96.18C233.62 96.3 233.68 96.36 233.8 96.36C233.96 96.36 234.2 96.3533 234.52 96.34C234.853 96.3267 235.1 96.32 235.26 96.32C235.3 96.32 235.327 96.3 235.34 96.26C235.367 96.22 235.367 96.1867 235.34 96.16C235.3 96.08 235.22 95.9267 235.1 95.7C234.98 95.46 234.887 95.28 234.82 95.16C234.687 94.9067 234.66 94.6467 234.74 94.38C234.833 94.1 235.007 93.8933 235.26 93.76C235.527 93.6267 235.793 93.6067 236.06 93.7C236.34 93.7933 236.553 93.9733 236.7 94.24C236.767 94.36 236.86 94.54 236.98 94.78C237.1 95.0067 237.193 95.18 237.26 95.3C237.38 95.5533 237.4 95.8067 237.32 96.06C237.293 96.1667 237.32 96.22 237.4 96.22H237.76ZM255.8 95.92C256.12 95.8267 256.427 95.8467 256.72 95.98C257.013 96.1133 257.22 96.3267 257.34 96.62C258.713 99.9533 259.46 103.7 259.58 107.86C259.593 108.167 259.487 108.433 259.26 108.66C259.033 108.887 258.767 109 258.46 109H256.94C256.633 109 256.367 108.893 256.14 108.68C255.913 108.453 255.793 108.187 255.78 107.88C255.66 104.293 255.007 100.887 253.82 97.66C253.713 97.3667 253.727 97.0867 253.86 96.82C253.993 96.54 254.207 96.36 254.5 96.28L255.8 95.92ZM252.74 104.4C253.033 104.507 253.247 104.707 253.38 105C253.513 105.28 253.52 105.567 253.4 105.86C252.693 107.553 251.827 108.867 250.8 109.8C249.787 110.733 248.787 111.2 247.8 111.2C246.573 111.2 245.433 110.407 244.38 108.82C243.327 107.233 242.8 105.293 242.8 103C242.8 100.947 243.06 98.9133 243.58 96.9C243.66 96.58 243.833 96.3267 244.1 96.14C244.38 95.9533 244.687 95.88 245.02 95.92L246.48 96.08C246.773 96.1067 247 96.2467 247.16 96.5C247.333 96.74 247.387 97.0067 247.32 97.3C246.84 99.3267 246.6 101.227 246.6 103C246.6 103.627 246.647 104.227 246.74 104.8C246.847 105.36 246.98 105.827 247.14 106.2C247.3 106.56 247.46 106.853 247.62 107.08C247.793 107.293 247.953 107.4 248.1 107.4C248.313 107.4 248.607 107.167 248.98 106.7C249.353 106.22 249.747 105.527 250.16 104.62C250.293 104.34 250.5 104.14 250.78 104.02C251.073 103.9 251.367 103.893 251.66 104L252.74 104.4ZM268.8 108.2C269.48 108.2 269.933 108.127 270.16 107.98C270.4 107.833 270.54 107.513 270.58 107.02C270.58 106.9 270.54 106.833 270.46 106.82C269.98 106.673 269.56 106.6 269.2 106.6C268.133 106.6 267.6 106.867 267.6 107.4C267.6 107.933 268 108.2 268.8 108.2ZM277.86 95.6C278.167 95.6 278.433 95.7133 278.66 95.94C278.887 96.1667 279 96.4333 279 96.74V97.66C279 97.9667 278.887 98.2333 278.66 98.46C278.433 98.6867 278.167 98.8 277.86 98.8H274.38C274.26 98.8 274.2 98.86 274.2 98.98V99.44C274.2 99.5467 274.26 99.6 274.38 99.6H277.06C277.367 99.6 277.633 99.7133 277.86 99.94C278.087 100.167 278.2 100.433 278.2 100.74V101.56C278.2 101.867 278.087 102.133 277.86 102.36C277.633 102.587 277.367 102.7 277.06 102.7H274.38C274.26 102.7 274.2 102.76 274.2 102.88V104.96C274.2 105.08 274.253 105.173 274.36 105.24C275.467 105.933 276.6 106.8 277.76 107.84C277.987 108.053 278.107 108.32 278.12 108.64C278.147 108.947 278.053 109.213 277.84 109.44L277.16 110.16C276.947 110.387 276.687 110.507 276.38 110.52C276.073 110.547 275.807 110.453 275.58 110.24C275.073 109.773 274.56 109.333 274.04 108.92C273.96 108.84 273.887 108.86 273.82 108.98C273.5 109.833 272.933 110.447 272.12 110.82C271.307 111.207 270.2 111.4 268.8 111.4C267.293 111.4 266.113 111.047 265.26 110.34C264.42 109.647 264 108.667 264 107.4C264 106.173 264.413 105.22 265.24 104.54C266.067 103.847 267.253 103.5 268.8 103.5C269.387 103.5 269.933 103.547 270.44 103.64C270.547 103.667 270.6 103.62 270.6 103.5V102.88C270.6 102.76 270.547 102.7 270.44 102.7H264.94C264.633 102.7 264.367 102.587 264.14 102.36C263.913 102.133 263.8 101.867 263.8 101.56V100.74C263.8 100.433 263.913 100.167 264.14 99.94C264.367 99.7133 264.633 99.6 264.94 99.6H270.44C270.547 99.6 270.6 99.5467 270.6 99.44V98.98C270.6 98.86 270.547 98.8 270.44 98.8H264.14C263.833 98.8 263.567 98.6867 263.34 98.46C263.113 98.2333 263 97.9667 263 97.66V96.74C263 96.4333 263.113 96.1667 263.34 95.94C263.567 95.7133 263.833 95.6 264.14 95.6H270.44C270.547 95.6 270.6 95.54 270.6 95.42V95.14C270.6 94.8333 270.713 94.5667 270.94 94.34C271.167 94.1133 271.433 94 271.74 94H273.06C273.367 94 273.633 94.1133 273.86 94.34C274.087 94.5667 274.2 94.8333 274.2 95.14V95.42C274.2 95.54 274.26 95.6 274.38 95.6H277.86ZM288.88 103.86C289.147 104.087 289.487 104.2 289.9 104.2C290.313 104.2 290.647 104.087 290.9 103.86C291.167 103.633 291.3 103.347 291.3 103C291.3 102.653 291.167 102.367 290.9 102.14C290.647 101.913 290.313 101.8 289.9 101.8C289.487 101.8 289.147 101.913 288.88 102.14C288.627 102.367 288.5 102.653 288.5 103C288.5 103.347 288.627 103.633 288.88 103.86ZM298.66 95.4C298.967 95.4 299.233 95.5133 299.46 95.74C299.687 95.9667 299.8 96.2333 299.8 96.54V97.26C299.8 97.5667 299.687 97.8333 299.46 98.06C299.233 98.2867 298.967 98.4 298.66 98.4H294.76C294.653 98.4 294.6 98.46 294.6 98.58V101.84C294.6 101.907 294.627 102.007 294.68 102.14C295.093 102.993 295.3 103.88 295.3 104.8C295.3 106.76 294.747 108.253 293.64 109.28C292.533 110.293 290.693 110.96 288.12 111.28C287.8 111.32 287.513 111.24 287.26 111.04C287.02 110.853 286.867 110.6 286.8 110.28L286.6 109.32C286.547 109.027 286.613 108.76 286.8 108.52C286.987 108.267 287.233 108.127 287.54 108.1C288.553 107.993 289.32 107.88 289.84 107.76C290.373 107.64 290.747 107.507 290.96 107.36C291.173 107.213 291.34 107.013 291.46 106.76C291.473 106.747 291.48 106.727 291.48 106.7C291.48 106.673 291.487 106.653 291.5 106.64V106.6H291.46C290.78 106.867 290.093 107 289.4 107C288.093 107 287.033 106.633 286.22 105.9C285.407 105.167 285 104.2 285 103C285 101.787 285.413 100.82 286.24 100.1C287.067 99.3667 288.187 99 289.6 99C290.013 99 290.46 99.0667 290.94 99.2H290.98C290.993 99.2 291 99.1933 291 99.18V98.58C291 98.46 290.94 98.4 290.82 98.4H283.34C283.033 98.4 282.767 98.2867 282.54 98.06C282.313 97.8333 282.2 97.5667 282.2 97.26V96.54C282.2 96.2333 282.313 95.9667 282.54 95.74C282.767 95.5133 283.033 95.4 283.34 95.4H290.82C290.94 95.4 291 95.34 291 95.22V94.74C291 94.4333 291.113 94.1667 291.34 93.94C291.567 93.7133 291.833 93.6 292.14 93.6H293.46C293.767 93.6 294.033 93.7133 294.26 93.94C294.487 94.1667 294.6 94.4333 294.6 94.74V95.22C294.6 95.34 294.653 95.4 294.76 95.4H298.66ZM304.62 109.18C304.847 109.393 305.107 109.5 305.4 109.5C305.693 109.5 305.947 109.393 306.16 109.18C306.387 108.953 306.5 108.693 306.5 108.4C306.5 108.107 306.387 107.853 306.16 107.64C305.947 107.413 305.693 107.3 305.4 107.3C305.107 107.3 304.847 107.413 304.62 107.64C304.407 107.853 304.3 108.107 304.3 108.4C304.3 108.693 304.407 108.953 304.62 109.18ZM303 106C303.667 105.333 304.467 105 305.4 105C306.333 105 307.133 105.333 307.8 106C308.467 106.667 308.8 107.467 308.8 108.4C308.8 109.333 308.467 110.133 307.8 110.8C307.133 111.467 306.333 111.8 305.4 111.8C304.467 111.8 303.667 111.467 303 110.8C302.333 110.133 302 109.333 302 108.4C302 107.467 302.333 106.667 303 106Z" fill="#FFC024"/>
</svg>
